<svg version="1.1" id="Layer_1" xmlns="http://www.w3.org/2000/svg" xmlns:xlink="http://www.w3.org/1999/xlink" x="0px" y="0px"
	 width="100%" viewBox="0 0 3840 2160" enable-background="new 0 0 3840 2160" xml:space="preserve">
<path fill="#FFFFFF" opacity="1.000000" stroke="none" 
	d="
M2094.582520,1201.999878 
	C2094.582764,1133.086182 2094.582764,1065.172485 2094.582764,996.501526 
	C2113.565918,996.501526 2131.690430,996.501526 2151.051270,996.501526 
	C2151.051270,1009.875854 2151.051270,1023.329956 2151.051270,1036.783936 
	C2151.785889,1037.112305 2152.520508,1037.440674 2153.255127,1037.768921 
	C2162.133789,1019.567871 2174.052490,1004.616394 2193.559082,997.567444 
	C2212.437012,990.745789 2231.422119,990.386169 2250.351318,996.871704 
	C2270.259766,1003.692688 2283.081055,1017.911316 2292.633789,1039.064331 
	C2293.174805,1037.579346 2293.591797,1036.034424 2294.275146,1034.618164 
	C2310.947510,1000.056274 2347.619873,989.512939 2378.073486,992.849182 
	C2428.009277,998.319641 2442.980225,1034.777466 2445.709717,1067.759766 
	C2446.066162,1072.066406 2445.935303,1076.417847 2445.936279,1080.748535 
	C2445.949219,1131.729492 2445.944824,1182.710327 2445.944824,1233.691284 
	C2445.944824,1237.284424 2445.944824,1240.877686 2445.944824,1245.088867 
	C2426.114746,1245.088867 2407.262451,1245.088867 2387.094238,1245.088867 
	C2386.929199,1241.776855 2386.606201,1238.285767 2386.603760,1234.794434 
	C2386.570312,1186.479248 2386.734375,1138.162964 2386.425537,1089.849731 
	C2386.375244,1081.992676 2385.176514,1073.878174 2382.912354,1066.363403 
	C2379.644287,1055.516235 2371.593750,1048.350952 2360.849854,1044.872314 
	C2333.797119,1036.113037 2300.239014,1047.881592 2299.797852,1087.017334 
	C2299.249756,1135.659668 2299.651367,1184.312622 2299.642822,1232.961060 
	C2299.642090,1236.609619 2299.642578,1240.258057 2299.642578,1245.240601 
	C2289.776611,1246.207153 2280.233643,1245.609253 2270.745850,1245.715332 
	C2261.437988,1245.819336 2252.128174,1245.737915 2241.604492,1245.737915 
	C2241.393799,1241.812012 2241.047119,1238.331909 2241.044434,1234.851562 
	C2241.008545,1187.536011 2241.031738,1140.220337 2241.002686,1092.904785 
	C2240.999756,1088.244019 2240.983154,1083.562744 2240.573242,1078.926270 
	C2238.333984,1053.603760 2216.873535,1037.784546 2191.894775,1042.930542 
	C2170.113281,1047.417847 2155.543457,1064.829224 2153.962402,1088.405396 
	C2153.695312,1092.388550 2153.790527,1096.398804 2153.789795,1100.396606 
	C2153.779541,1144.713379 2153.783203,1189.030029 2153.783203,1233.346802 
	C2153.783203,1236.968872 2153.783203,1240.590942 2153.783203,1244.967896 
	C2133.973145,1244.967896 2114.901611,1244.967896 2094.582031,1244.967896 
	C2094.582031,1230.797974 2094.582031,1216.898926 2094.582520,1201.999878 
z"/>
<path fill="#FFFFFF" opacity="1.000000" stroke="none" 
	d="
M1337.683838,926.260376 
	C1388.935669,949.618408 1413.606812,991.231995 1421.567017,1044.185913 
	C1426.623169,1077.820801 1425.104736,1111.329956 1414.557373,1143.954712 
	C1396.960449,1198.385376 1359.348633,1230.534302 1303.671997,1241.605103 
	C1291.012573,1244.122192 1277.921265,1245.333130 1265.004761,1245.523926 
	C1229.370605,1246.050415 1193.723755,1245.724731 1158.081909,1245.711548 
	C1155.795288,1245.710693 1153.508667,1245.500854 1151.382446,1245.396240 
	C1149.338501,1237.828735 1148.521362,930.705811 1150.461914,913.025696 
	C1152.849976,912.785645 1155.395630,912.309814 1157.941650,912.306946 
	C1194.915894,912.265442 1231.892822,912.023438 1268.863525,912.389709 
	C1292.339844,912.622253 1315.217407,916.714600 1337.683838,926.260376 
M1355.895142,1023.407471 
	C1344.528931,992.195679 1322.338745,973.700073 1289.844116,967.566345 
	C1264.092773,962.705444 1238.067505,964.602539 1212.117676,964.950989 
	C1211.597046,964.957947 1211.086670,965.716187 1210.575562,966.129150 
	C1208.767212,983.511414 1209.565552,1185.343750 1211.701172,1193.387207 
	C1223.736572,1193.387207 1236.031860,1193.821655 1248.283081,1193.273560 
	C1262.556519,1192.634888 1277.028198,1192.391846 1290.994629,1189.755737 
	C1322.103149,1183.883789 1344.552002,1166.129150 1355.102417,1135.872192 
	C1367.883179,1099.219116 1367.522827,1062.028687 1355.895142,1023.407471 
z"/>
<path fill="#FFFFFF" opacity="1.000000" stroke="none" 
	d="
M836.714417,1011.929932 
	C836.552063,994.288452 835.832092,976.630554 836.348572,959.008972 
	C837.294006,926.753174 815.252747,888.923523 772.320618,880.963318 
	C766.807861,879.941101 761.067383,879.841431 755.431763,879.834351 
	C694.816467,879.758118 634.200989,879.786316 573.585571,879.785950 
	C570.002136,879.785950 566.418640,879.786011 562.290283,879.786011 
	C562.290283,840.270691 562.290283,801.847290 562.290283,762.273193 
	C566.376465,762.273193 569.943298,762.273132 573.510071,762.273254 
	C633.126343,762.275146 692.743164,762.404480 752.358032,762.118958 
	C759.888428,762.082947 765.546387,764.257690 771.199219,769.028320 
	C826.420105,815.631592 881.463257,862.458679 937.415405,908.171570 
	C949.770569,918.265747 955.098755,928.302734 954.062500,944.170044 
	C952.632812,966.060852 953.606323,988.108582 952.501099,1011.023438 
	C913.206055,1011.948486 874.960205,1011.939209 836.714417,1011.929932 
z"/>
<path fill="#FFFFFF" opacity="1.000000" stroke="none" 
	d="
M3192.738037,1249.019043 
	C3181.981445,1249.629639 3171.995605,1250.770508 3162.105713,1250.211670 
	C3138.487793,1248.876953 3120.740234,1236.954590 3107.410645,1217.863892 
	C3105.152100,1214.629395 3102.769775,1211.481323 3100.408203,1208.320435 
	C3100.282471,1208.152344 3099.815918,1208.238892 3098.351807,1208.086670 
	C3096.261963,1220.288208 3098.608643,1232.833862 3096.905762,1245.628052 
	C3077.998047,1245.628052 3059.535889,1245.628052 3040.415771,1245.628052 
	C3040.415771,1135.239136 3040.415771,1025.154541 3040.415771,914.384155 
	C3059.404053,914.384155 3078.183838,914.384155 3098.261230,914.384155 
	C3098.261230,954.942383 3098.261230,995.320312 3098.261230,1035.698364 
	C3099.073242,1035.996460 3099.885498,1036.294678 3100.697510,1036.592896 
	C3102.425781,1034.100586 3104.260986,1031.674927 3105.864990,1029.104980 
	C3117.376709,1010.660828 3133.209473,997.812622 3155.018311,994.769958 
	C3197.591064,988.830505 3233.763184,1003.713501 3256.767090,1042.488647 
	C3269.715088,1064.313354 3274.313232,1088.426270 3275.194092,1113.281494 
	C3276.268555,1143.594971 3272.693604,1173.181396 3257.561768,1200.290405 
	C3243.327148,1225.792114 3222.318848,1242.423340 3192.738037,1249.019043 
M3102.981689,1082.403198 
	C3096.860107,1100.791138 3096.661621,1119.749023 3098.288574,1138.715454 
	C3099.403076,1151.710449 3103.001221,1164.191772 3109.631836,1175.634521 
	C3116.404297,1187.323120 3125.721924,1196.266235 3138.838867,1199.905029 
	C3167.559082,1207.872192 3192.439209,1198.015015 3205.759277,1169.638550 
	C3212.541016,1155.191040 3214.765381,1139.722290 3214.956543,1123.997070 
	C3215.164307,1106.925537 3213.316650,1090.073975 3205.845947,1074.375366 
	C3196.166260,1054.034058 3180.773438,1042.247803 3157.492920,1041.817993 
	C3133.520752,1041.375610 3116.952393,1052.400269 3106.583740,1073.539185 
	C3105.415039,1075.921753 3104.572754,1078.464722 3102.981689,1082.403198 
z"/>
<path fill="#FFFFFF" opacity="1.000000" stroke="none" 
	d="
M2813.908203,1025.921509 
	C2832.656738,1007.262634 2855.241211,997.858521 2880.242676,994.781921 
	C2902.855713,991.999084 2925.513184,992.831909 2947.312988,1000.868652 
	C2981.404785,1013.436829 3000.661133,1038.626709 3001.159424,1074.864014 
	C3001.924316,1130.499268 3001.357666,1186.153076 3001.325928,1241.798950 
	C3001.325439,1242.753052 3000.945801,1243.706909 3000.576416,1245.446289 
	C2982.249268,1245.446289 2963.879395,1245.446289 2944.371094,1245.446289 
	C2944.371094,1235.047607 2944.371094,1224.948364 2944.371094,1213.721924 
	C2942.297119,1215.062134 2941.293457,1215.364624 2940.870117,1216.034180 
	C2926.271729,1239.123047 2904.185791,1249.162354 2878.027588,1251.396484 
	C2859.141846,1253.009277 2840.746338,1250.260498 2823.634277,1241.611084 
	C2801.709473,1230.529175 2789.447021,1212.337402 2786.445557,1188.219727 
	C2784.837646,1175.300293 2785.211426,1162.274902 2789.775879,1149.722412 
	C2795.292480,1134.551147 2805.636230,1123.796143 2819.694824,1116.270752 
	C2835.552246,1107.782227 2852.800537,1104.483032 2870.384521,1102.144531 
	C2888.197021,1099.775879 2905.966064,1097.072876 2923.734131,1094.384155 
	C2926.671387,1093.939697 2929.559082,1092.968506 2932.377441,1091.978516 
	C2938.349609,1089.880859 2941.598877,1085.486816 2941.934570,1079.236084 
	C2942.846436,1062.263062 2935.886230,1043.105957 2911.078857,1039.647827 
	C2901.064941,1038.251953 2891.162598,1038.603271 2881.351562,1041.195801 
	C2865.843750,1045.293701 2854.960205,1054.793701 2848.753906,1069.533447 
	C2830.101074,1069.533447 2811.920166,1069.533447 2793.075928,1069.533447 
	C2795.269043,1052.468872 2802.412109,1038.558716 2813.908203,1025.921509 
M2911.531738,1203.059937 
	C2926.720947,1195.732788 2938.442383,1184.671265 2941.134277,1167.758545 
	C2943.081543,1155.523804 2941.513916,1142.729492 2941.513916,1130.044678 
	C2940.308350,1130.044678 2939.300293,1129.881592 2938.362793,1130.069336 
	C2924.703369,1132.803711 2911.024902,1135.452759 2897.409912,1138.395264 
	C2885.764404,1140.911865 2873.753174,1142.608643 2862.700439,1146.779419 
	C2848.164062,1152.264404 2841.265137,1164.386230 2842.394775,1177.847168 
	C2843.593262,1192.127441 2852.586426,1202.190918 2867.945312,1206.090820 
	C2882.222412,1209.715820 2896.300537,1208.759155 2911.531738,1203.059937 
z"/>
<path fill="#FFFFFF" opacity="1.000000" stroke="none" 
	d="
M1500.066040,1108.037598 
	C1519.842407,1104.614258 1538.852051,1101.425781 1557.850830,1098.173218 
	C1569.320801,1096.209595 1580.911621,1094.712036 1592.194092,1091.962524 
	C1602.712891,1089.398926 1605.567017,1084.480103 1605.055664,1073.712524 
	C1604.105469,1053.706787 1594.370728,1041.962158 1574.673218,1038.718140 
	C1557.734741,1035.928589 1541.058594,1037.679688 1527.227417,1048.795532 
	C1520.682739,1054.055420 1515.961304,1061.583984 1509.643433,1068.987671 
	C1493.203735,1068.987671 1475.312500,1068.987671 1456.634644,1068.987671 
	C1456.900391,1066.317749 1456.912720,1064.110962 1457.363037,1061.997559 
	C1461.273193,1043.645264 1471.124756,1029.026611 1485.585083,1017.314148 
	C1524.475098,985.814392 1590.714966,985.719666 1627.316650,1007.799377 
	C1649.854858,1021.395203 1661.391113,1041.756104 1663.859375,1067.572510 
	C1664.365112,1072.863159 1664.228027,1078.224121 1664.230591,1083.552734 
	C1664.254883,1133.527100 1664.245239,1183.501465 1664.245239,1233.475830 
	C1664.245239,1237.091675 1664.245239,1240.707520 1664.245239,1245.025635 
	C1645.352173,1245.025635 1627.252441,1245.025635 1607.911987,1245.025635 
	C1607.911987,1239.491699 1607.911987,1234.265625 1607.911987,1229.039673 
	C1607.911987,1223.806885 1607.911987,1218.574097 1607.911987,1211.199829 
	C1605.487915,1213.729614 1604.299927,1214.627197 1603.549194,1215.803833 
	C1591.051758,1235.393188 1572.500122,1245.793457 1550.204346,1249.198242 
	C1533.005127,1251.824585 1515.667603,1251.189941 1498.811401,1245.663574 
	C1463.258423,1234.007568 1446.868164,1205.095947 1448.946411,1169.368042 
	C1450.837769,1136.852539 1469.629150,1118.009155 1500.066040,1108.037598 
M1605.921631,1133.977417 
	C1605.702881,1132.167236 1605.484131,1130.356934 1605.262939,1128.527588 
	C1596.132690,1130.665894 1587.831665,1132.925049 1579.402588,1134.497192 
	C1570.593872,1136.139771 1561.643677,1137.006592 1552.788574,1138.421021 
	C1541.950684,1140.152466 1531.127686,1141.959473 1521.440308,1147.704712 
	C1509.552368,1154.754639 1504.558350,1165.219238 1506.016602,1178.762817 
	C1507.419434,1191.791504 1515.196411,1199.748413 1527.165771,1203.952759 
	C1539.101562,1208.145264 1551.317139,1208.151245 1563.573975,1205.694336 
	C1588.531006,1200.691772 1605.589722,1180.116699 1605.899536,1154.751343 
	C1605.976807,1148.429565 1605.921387,1142.106079 1605.921631,1133.977417 
z"/>
<path fill="#FFFFFF" opacity="1.000000" stroke="none" 
	d="
M1966.843750,1236.947266 
	C1939.146729,1251.758911 1911.421387,1252.626099 1883.534790,1240.315430 
	C1865.194702,1232.219360 1853.605347,1217.425049 1846.348145,1199.080200 
	C1841.145386,1185.928833 1838.562744,1172.144287 1838.503906,1158.079346 
	C1838.286011,1106.092163 1838.392822,1054.103516 1838.399902,1002.115417 
	C1838.400146,1000.497681 1838.644531,998.879883 1838.834717,996.522522 
	C1858.278198,996.522522 1877.362061,996.522522 1897.720215,996.522522 
	C1897.720215,1000.253540 1897.720093,1003.807434 1897.720093,1007.361328 
	C1897.720825,1052.684448 1897.701172,1098.007568 1897.753418,1143.330688 
	C1897.758789,1147.984497 1897.681641,1152.731323 1898.512451,1157.276245 
	C1904.243896,1188.635010 1927.999268,1202.554565 1959.446533,1194.955078 
	C1979.881592,1190.016724 1991.355713,1175.314209 1995.930786,1155.274414 
	C1997.323608,1149.172974 1997.742310,1142.738037 1997.764893,1136.452881 
	C1997.918091,1093.796265 1997.845459,1051.139038 1997.846069,1008.481934 
	C1997.846191,1004.832336 1997.846191,1001.182739 1997.846191,997.687012 
	C2004.981812,995.367798 2041.617676,994.740051 2056.131836,996.625183 
	C2056.131836,1079.342529 2056.131836,1162.131470 2056.131836,1245.170288 
	C2037.270386,1245.170288 2019.085449,1245.170288 1999.593750,1245.170288 
	C1999.593750,1230.616577 1999.593750,1216.585815 1999.593750,1202.555176 
	C1998.949585,1202.426147 1998.305542,1202.297119 1997.661377,1202.167969 
	C1993.364746,1208.632690 1989.672729,1215.627563 1984.599854,1221.411377 
	C1979.614990,1227.095093 1973.228027,1231.549316 1966.843750,1236.947266 
z"/>
<path fill="#FFFFFF" opacity="1.000000" stroke="none" 
	d="
M3449.812012,1000.056030 
	C3476.970947,1010.063721 3494.789307,1028.006104 3502.697510,1055.298462 
	C3503.321045,1057.450073 3503.452637,1059.744263 3503.986572,1063.046509 
	C3486.343262,1064.903687 3469.281738,1066.699463 3451.867188,1068.532471 
	C3450.700195,1066.373535 3449.722412,1064.717896 3448.885986,1062.993896 
	C3440.830811,1046.393677 3427.517334,1038.149292 3409.146240,1037.595703 
	C3397.649658,1037.249390 3386.524170,1038.332397 3376.325684,1044.232544 
	C3367.726807,1049.207275 3361.736572,1055.946777 3362.027100,1066.513184 
	C3362.313721,1076.939209 3367.753174,1084.521118 3377.187256,1088.030640 
	C3388.034424,1092.066040 3399.323242,1095.032104 3410.579834,1097.818115 
	C3423.168457,1100.933960 3436.079102,1102.802856 3448.578857,1106.207764 
	C3457.827637,1108.726929 3467.080811,1111.990723 3475.575439,1116.384888 
	C3509.499756,1133.933838 3520.262939,1174.047974 3500.429688,1206.853027 
	C3487.975830,1227.452637 3468.939453,1239.200317 3446.570557,1245.546387 
	C3415.039795,1254.491821 3383.228271,1254.240112 3352.175537,1243.458252 
	C3321.964844,1232.968994 3302.549805,1212.223022 3296.281738,1179.474243 
	C3305.695801,1175.987915 3315.328369,1176.581055 3324.719238,1175.640259 
	C3333.960938,1174.714111 3343.208496,1173.841919 3352.809082,1172.911621 
	C3353.663086,1174.656006 3354.551025,1176.031006 3355.040527,1177.535522 
	C3360.357666,1193.876587 3372.413330,1202.432373 3388.546631,1205.373291 
	C3400.394043,1207.532959 3412.616455,1207.872681 3424.127197,1203.806152 
	C3430.540039,1201.540527 3437.022217,1198.044067 3442.025635,1193.506226 
	C3453.147217,1183.420044 3452.300781,1167.850586 3440.108887,1158.972412 
	C3434.356934,1154.783936 3427.275146,1151.786011 3420.344727,1149.982056 
	C3405.226807,1146.047119 3389.820312,1143.218384 3374.530518,1139.945190 
	C3360.793945,1137.004395 3347.636963,1132.598145 3335.229736,1125.814941 
	C3293.341553,1102.913696 3293.937012,1043.601440 3327.064453,1017.123840 
	C3343.194824,1004.231323 3361.689941,997.091431 3381.845947,994.860168 
	C3404.437256,992.359253 3427.080811,992.449280 3449.812012,1000.056030 
z"/>
<path fill="#FFFFFF" opacity="1.000000" stroke="none" 
	d="
M2617.992432,913.701294 
	C2627.582275,913.701172 2636.176758,913.701172 2645.546143,913.701172 
	C2645.753662,917.773010 2646.059570,920.990356 2646.060791,924.207825 
	C2646.087646,1001.474243 2646.016113,1078.740845 2646.205322,1156.006836 
	C2646.220459,1162.218262 2644.859131,1166.671875 2639.592529,1170.412598 
	C2633.369873,1174.832397 2627.821289,1180.195312 2621.923096,1185.080200 
	C2618.960938,1187.533691 2616.433838,1190.058105 2618.825439,1195.831177 
	C2633.997559,1196.018066 2649.810791,1195.890991 2665.617920,1195.913452 
	C2681.270996,1195.935669 2696.924316,1195.918213 2712.577393,1195.918213 
	C2728.504150,1195.918213 2744.430664,1195.918213 2761.028320,1195.918213 
	C2761.028320,1212.883423 2761.028320,1228.977051 2761.028320,1245.662354 
	C2702.836182,1245.662354 2645.054932,1245.662354 2586.561035,1245.662354 
	C2586.561035,1135.385376 2586.561035,1025.337158 2586.561035,914.249634 
	C2596.598877,913.051331 2606.830811,914.007751 2617.992432,913.701294 
z"/>
<path fill="#FFFFFF" opacity="1.000000" stroke="none" 
	d="
M459.840881,1234.023804 
	C464.031769,1241.186035 467.484467,1248.925537 472.550140,1255.403687 
	C488.585388,1275.910400 510.305756,1285.301270 536.074951,1285.563477 
	C554.722656,1285.753174 573.373840,1285.601562 592.023438,1285.602173 
	C595.295227,1285.602295 598.567078,1285.602173 602.392212,1285.602173 
	C602.392212,1324.729614 602.392212,1362.893066 602.392212,1401.631104 
	C599.491333,1401.873291 596.933594,1402.265015 594.374756,1402.271851 
	C575.059204,1402.323975 555.741638,1402.157349 536.428894,1402.393799 
	C531.104187,1402.459106 526.986206,1400.966675 522.897644,1397.518555 
	C471.991974,1354.587402 420.958740,1311.807495 369.973022,1268.971069 
	C360.311462,1260.853760 350.714264,1252.659668 340.625916,1243.229736 
	C340.192474,1239.356567 340.220428,1236.755005 341.160339,1234.097900 
	C381.328522,1234.036255 420.584686,1234.030029 459.840881,1234.023804 
z"/>
<path fill="#FFFFFF" opacity="1.000000" stroke="none" 
	d="
M1770.005127,1197.369873 
	C1780.009888,1197.684082 1789.236084,1197.684082 1799.309082,1197.684082 
	C1802.575928,1212.575562 1805.823730,1227.379395 1809.268677,1243.082031 
	C1781.207153,1250.842407 1754.229736,1252.882080 1728.237061,1238.946045 
	C1707.279175,1227.708984 1697.927368,1208.956665 1696.303711,1185.849609 
	C1696.047363,1182.201904 1696.133057,1178.527222 1696.132690,1174.864990 
	C1696.124146,1095.948608 1696.125854,1017.032227 1696.125610,938.115845 
	C1696.125610,934.826233 1696.125732,931.536621 1696.125732,927.549011 
	C1715.959839,927.549011 1735.050171,927.549011 1755.357788,927.549011 
	C1755.357788,939.359802 1755.637695,950.588440 1755.137817,961.782288 
	C1755.028687,964.226746 1752.523560,966.979980 1750.450073,968.843567 
	C1744.016357,974.626282 1737.261353,980.051697 1730.626709,985.610718 
	C1727.730469,988.037476 1724.941650,990.497070 1727.490234,995.652100 
	C1751.592529,995.652100 1776.115479,995.652100 1801.392944,995.652100 
	C1801.392944,1012.887573 1801.392944,1029.345703 1801.392944,1046.981689 
	C1786.658936,1046.981689 1771.839233,1046.981689 1756.439941,1046.981689 
	C1756.014282,1050.592896 1755.459106,1053.125488 1755.455688,1055.658936 
	C1755.403198,1093.951660 1755.431396,1132.244507 1755.420898,1170.537231 
	C1755.417725,1181.789917 1757.701172,1191.820190 1770.005127,1197.369873 
z"/>
<path fill="#FFFFFF" opacity="1.000000" stroke="none" 
	d="
M690.078796,1343.981201 
	C690.078796,1325.128052 690.078796,1306.274902 690.078796,1286.447144 
	C693.843567,1286.196777 697.022278,1285.813721 700.202271,1285.802612 
	C717.456360,1285.742188 734.710754,1285.791016 751.965088,1285.768555 
	C768.461609,1285.747070 784.167114,1282.494995 799.951904,1274.588379 
	C803.983337,1279.224731 808.294922,1277.944824 812.099060,1277.955566 
	C838.560547,1278.030396 865.023315,1277.881470 891.483398,1278.087524 
	C897.017212,1278.130615 902.541870,1279.353516 908.070740,1280.032715 
	C898.430115,1288.526978 888.935791,1297.194702 879.115601,1305.476074 
	C863.205322,1318.893311 847.081116,1332.057129 829.679077,1345.280151 
	C824.394897,1344.821533 820.479492,1344.062256 816.562561,1344.053589 
	C774.401428,1343.961426 732.240112,1343.987549 690.078796,1343.981201 
z"/>
<path fill="#FFFFFF" opacity="1.000000" stroke="none" 
	d="
M908.674438,1279.745605 
	C902.541870,1279.353516 897.017212,1278.130615 891.483398,1278.087524 
	C865.023315,1277.881470 838.560547,1278.030396 812.099060,1277.955566 
	C808.294922,1277.944824 803.983337,1279.224731 800.672241,1274.501465 
	C814.062561,1263.001221 826.109070,1250.543701 831.895081,1233.033203 
	C834.958435,1223.762085 836.343018,1214.391846 836.142395,1204.688721 
	C836.039490,1199.713135 836.214966,1194.731689 837.333252,1188.855591 
	C876.699280,1187.939697 914.996582,1187.921143 953.293945,1187.902588 
	C953.459778,1204.776245 953.791138,1221.651733 953.610046,1238.521729 
	C953.583313,1241.008545 951.696655,1244.134766 949.705383,1245.834473 
	C936.375732,1257.213745 922.784546,1268.286377 908.674438,1279.745605 
z"/>
<path fill="#FFFFFF" opacity="1.000000" stroke="none" 
	d="
M953.451782,1186.983887 
	C914.996582,1187.921143 876.699280,1187.939697 837.518311,1187.932739 
	C836.522217,1166.531006 836.409729,1145.154663 837.371704,1122.871216 
	C876.713440,1121.952881 914.980652,1121.941772 953.247925,1121.930664 
	C953.368469,1143.308838 953.489014,1164.687134 953.451782,1186.983887 
z"/>
<path fill="#FFFFFF" opacity="1.000000" stroke="none" 
	d="
M953.415161,1121.011230 
	C914.980652,1121.941772 876.713440,1121.952881 837.562317,1121.948242 
	C836.556580,1103.218140 836.434692,1084.503540 837.390625,1064.878174 
	C876.722107,1063.959839 914.975830,1063.952515 953.229553,1063.945190 
	C953.347168,1082.660767 953.464844,1101.376465 953.415161,1121.011230 
z"/>
<path fill="#FFFFFF" opacity="1.000000" stroke="none" 
	d="
M340.248352,1234.153320 
	C340.220428,1236.755005 340.192474,1239.356567 340.162140,1242.734131 
	C339.517487,1241.413696 338.315125,1239.317017 338.316315,1237.221069 
	C338.336853,1200.798340 338.505127,1164.375610 339.698364,1127.005493 
	C378.974548,1126.067993 417.193634,1126.077759 455.412689,1126.087524 
	C455.535217,1143.468018 455.657745,1160.848633 454.696472,1179.136230 
	C434.975891,1180.029053 416.339111,1180.000122 397.702301,1180.004150 
	C378.861664,1180.008179 360.020996,1180.044922 340.248352,1180.068604 
	C340.248352,1199.044067 340.248352,1216.598633 340.248352,1234.153320 
z"/>
<path fill="#FFFFFF" opacity="1.000000" stroke="none" 
	d="
M338.717010,1008.109802 
	C338.717010,990.562256 338.717010,973.014771 338.717010,954.821777 
	C377.610016,954.821777 415.796844,954.821777 455.478882,954.821777 
	C456.341949,971.887939 455.859833,989.056824 454.817200,1007.117493 
	C415.434753,1008.053894 377.075897,1008.081848 338.717010,1008.109802 
z"/>
<path fill="#FFFFFF" opacity="1.000000" stroke="none" 
	d="
M341.160339,1234.097900 
	C340.248352,1216.598633 340.248352,1199.044067 340.248352,1180.068604 
	C360.020996,1180.044922 378.861664,1180.008179 397.702301,1180.004150 
	C416.339111,1180.000122 434.975891,1180.029053 454.502991,1180.059570 
	C455.545074,1187.375244 455.958405,1194.681030 455.786041,1201.972778 
	C455.540344,1212.368408 456.836456,1222.493042 459.856903,1233.220093 
	C420.584686,1234.030029 381.328522,1234.036255 341.160339,1234.097900 
z"/>
<path fill="#FFFFFF" opacity="1.000000" stroke="none" 
	d="
M689.994873,1344.917236 
	C732.240112,1343.987549 774.401428,1343.961426 816.562561,1344.053589 
	C820.479492,1344.062256 824.394897,1344.821533 829.062622,1345.546387 
	C821.152771,1353.482666 812.587219,1361.217529 803.805969,1368.699097 
	C792.216980,1378.572388 780.572021,1388.388550 768.684998,1397.896606 
	C766.059082,1399.996948 762.336548,1401.819580 759.088440,1401.871826 
	C737.853821,1402.213135 716.610840,1402.043091 695.370605,1401.994507 
	C694.092468,1401.991577 692.815186,1401.596436 691.021729,1401.298096 
	C688.826050,1392.128784 690.210938,1382.870605 689.954590,1373.729370 
	C689.694214,1364.444336 689.906006,1355.145874 689.994873,1344.917236 
z"/>
<path fill="#FFFFFF" opacity="1.000000" stroke="none" 
	d="
M953.398193,1063.025146 
	C914.975830,1063.952515 876.722107,1063.959839 837.583374,1063.956665 
	C836.572876,1047.223633 836.447388,1030.501221 836.518127,1012.854370 
	C874.960205,1011.939209 913.206055,1011.948486 952.332031,1011.940125 
	C953.330444,1028.650024 953.448669,1045.377563 953.398193,1063.025146 
z"/>
<path fill="#FFFFFF" opacity="1.000000" stroke="none" 
	d="
M455.470612,1048.113770 
	C455.572784,1062.804321 455.674927,1077.494751 454.725067,1093.101440 
	C415.442963,1094.025391 377.212860,1094.033325 338.982758,1094.041260 
	C338.836548,1079.358276 338.690338,1064.675171 339.572174,1049.029297 
	C378.890350,1048.082275 417.180481,1048.097900 455.470612,1048.113770 
z"/>
<path fill="#FFFFFF" opacity="1.000000" stroke="none" 
	d="
M455.644409,1047.179932 
	C417.180481,1048.097900 378.890350,1048.082275 339.749451,1048.122314 
	C338.722229,1035.432007 338.545776,1022.685974 338.543152,1009.024902 
	C377.075897,1008.081848 415.434753,1008.053894 454.690491,1008.051514 
	C455.664276,1020.800110 455.741211,1033.523071 455.644409,1047.179932 
z"/>
<path fill="#FFFFFF" opacity="1.000000" stroke="none" 
	d="
M338.755829,1094.949829 
	C377.212860,1094.033325 415.442963,1094.025391 454.562744,1094.027588 
	C455.565216,1104.103882 455.678070,1114.170288 455.601807,1125.162109 
	C417.193634,1126.077759 378.974548,1126.067993 339.911133,1126.104248 
	C338.887451,1116.053101 338.708191,1105.955811 338.755829,1094.949829 
z"/>
<path fill="#FFFFFF" opacity="1.000000" stroke="none" 
	d="
M1356.134277,1024.156738 
	C1367.522827,1062.028687 1367.883179,1099.219116 1355.102417,1135.872192 
	C1344.552002,1166.129150 1322.103149,1183.883789 1290.994629,1189.755737 
	C1277.028198,1192.391846 1262.556519,1192.634888 1248.283081,1193.273560 
	C1236.031860,1193.821655 1223.736572,1193.387207 1211.701172,1193.387207 
	C1209.565552,1185.343750 1208.767212,983.511414 1210.573486,966.126587 
	C1211.086670,965.716187 1211.597046,964.957947 1212.117676,964.950989 
	C1238.067505,964.602539 1264.092773,962.705444 1289.844116,967.566345 
	C1322.338745,973.700073 1344.528931,992.195679 1356.134277,1024.156738 
z"/>
<path fill="#FFFFFF" opacity="1.000000" stroke="none" 
	d="
M3103.280518,1081.668213 
	C3104.572754,1078.464722 3105.415039,1075.921753 3106.583740,1073.539185 
	C3116.952393,1052.400269 3133.520752,1041.375610 3157.492920,1041.817993 
	C3180.773438,1042.247803 3196.166260,1054.034058 3205.845947,1074.375366 
	C3213.316650,1090.073975 3215.164307,1106.925537 3214.956543,1123.997070 
	C3214.765381,1139.722290 3212.541016,1155.191040 3205.759277,1169.638550 
	C3192.439209,1198.015015 3167.559082,1207.872192 3138.838867,1199.905029 
	C3125.721924,1196.266235 3116.404297,1187.323120 3109.631836,1175.634521 
	C3103.001221,1164.191772 3099.403076,1151.710449 3098.288574,1138.715454 
	C3096.661621,1119.749023 3096.860107,1100.791138 3103.280518,1081.668213 
z"/>
<path fill="#FFFFFF" opacity="1.000000" stroke="none" 
	d="
M2910.821289,1203.369019 
	C2896.300537,1208.759155 2882.222412,1209.715820 2867.945312,1206.090820 
	C2852.586426,1202.190918 2843.593262,1192.127441 2842.394775,1177.847168 
	C2841.265137,1164.386230 2848.164062,1152.264404 2862.700439,1146.779419 
	C2873.753174,1142.608643 2885.764404,1140.911865 2897.409912,1138.395264 
	C2911.024902,1135.452759 2924.703369,1132.803711 2938.362793,1130.069336 
	C2939.300293,1129.881592 2940.308350,1130.044678 2941.513916,1130.044678 
	C2941.513916,1142.729492 2943.081543,1155.523804 2941.134277,1167.758545 
	C2938.442383,1184.671265 2926.720947,1195.732788 2910.821289,1203.369019 
z"/>
<path fill="#FFFFFF" opacity="1.000000" stroke="none" 
	d="
M1605.924316,1134.880371 
	C1605.921387,1142.106079 1605.976807,1148.429565 1605.899536,1154.751343 
	C1605.589722,1180.116699 1588.531006,1200.691772 1563.573975,1205.694336 
	C1551.317139,1208.151245 1539.101562,1208.145264 1527.165771,1203.952759 
	C1515.196411,1199.748413 1507.419434,1191.791504 1506.016602,1178.762817 
	C1504.558350,1165.219238 1509.552368,1154.754639 1521.440308,1147.704712 
	C1531.127686,1141.959473 1541.950684,1140.152466 1552.788574,1138.421021 
	C1561.643677,1137.006592 1570.593872,1136.139771 1579.402588,1134.497192 
	C1587.831665,1132.925049 1596.132690,1130.665894 1605.262939,1128.527588 
	C1605.484131,1130.356934 1605.702881,1132.167236 1605.924316,1134.880371 
z"/>
</svg>